<svg width="22" height="22" viewBox="0 0 22 22" fill="none" xmlns="http://www.w3.org/2000/svg">
<path fill-rule="evenodd" clip-rule="evenodd" d="M19.0153 8.97223C19.0153 12.2706 16.3414 14.9445 13.0431 14.9445C9.74468 14.9445 7.07082 12.2706 7.07082 8.97223C7.07082 5.67386 9.74468 3 13.0431 3C16.3414 3 19.0153 5.67386 19.0153 8.97223ZM20.0153 8.97223C20.0153 12.8229 16.8937 15.9445 13.0431 15.9445C11.2977 15.9445 9.70222 15.3032 8.47924 14.2434L2.70613 20.0165L1.99902 19.3094L7.77211 13.5363C6.71219 12.3133 6.07082 10.7177 6.07082 8.97223C6.07082 5.12157 9.1924 2 13.0431 2C16.8937 2 20.0153 5.12157 20.0153 8.97223Z" fill="#4064BF"/>
</svg>
