<svg width="22" height="22" viewBox="0 0 22 22" fill="none" xmlns="http://www.w3.org/2000/svg">
<path d="M12.0303 16.128C10.8036 16.128 9.80631 15.808 9.03831 15.168C8.28098 14.5173 7.76365 13.5947 7.48631 12.4H5.85431L6.06231 11.152H7.39031C7.37965 11.0347 7.36898 10.9227 7.35831 10.816C7.35831 10.7093 7.35831 10.6027 7.35831 10.496C7.35831 10.4427 7.35831 10.3413 7.35831 10.192C7.36898 10.032 7.38498 9.808 7.40631 9.52H5.85431L6.06231 8.272H7.56631C7.84365 7.10933 8.34498 6.20267 9.07031 5.552C9.79565 4.89067 10.7663 4.56 11.9823 4.56C12.6223 4.56 13.1876 4.64533 13.6783 4.816C14.1796 4.98667 14.633 5.26933 15.0383 5.664L14.3343 6.672C13.993 6.37333 13.6356 6.16 13.2623 6.032C12.889 5.89333 12.457 5.824 11.9663 5.824C11.529 5.83467 11.1343 5.90933 10.7823 6.048C10.4303 6.176 10.1263 6.35733 9.87031 6.592C9.62498 6.816 9.42765 7.07733 9.27831 7.376C9.12898 7.664 9.01698 7.96267 8.94231 8.272H13.2943L13.0863 9.52H8.73431C8.70231 9.76533 8.68098 9.97333 8.67031 10.144C8.67031 10.3147 8.67031 10.416 8.67031 10.448C8.67031 10.576 8.67565 10.6987 8.68631 10.816C8.69698 10.9333 8.71298 11.0453 8.73431 11.152H12.7983L12.5903 12.4H8.92631C9.10765 13.136 9.46498 13.7387 9.99831 14.208C10.5423 14.6667 11.2463 14.896 12.1103 14.896C12.601 14.896 13.0276 14.8427 13.3903 14.736C13.753 14.6187 14.1156 14.3947 14.4783 14.064L15.1503 14.96C14.3716 15.7387 13.3316 16.128 12.0303 16.128Z" fill="#30343D"/>
</svg>
