<svg width="22" height="22" viewBox="0 0 22 22" fill="none" xmlns="http://www.w3.org/2000/svg">
<path fill-rule="evenodd" clip-rule="evenodd" d="M9.39904 2.85295L9.03427 2.46387L8.66951 2.85295L4.66701 7.12228V3.6378H3.66701V8.18895L2.03369 9.93116L2.76323 10.6151L9.03427 3.92598L15.3053 10.6151L16.0349 9.93116L9.39904 2.85295ZM3.66667 16.0241V9.83064H4.66667V15.5241H12.9568V9.83064H13.9568V16.0241V16.5241H13.4568H4.16667H3.66667V16.0241Z" fill="#30343D"/>
<mask id="path-2-inside-1_259_9993" fill="white">
<path fill-rule="evenodd" clip-rule="evenodd" d="M13.5 4C11.567 4 10 5.567 10 7.5V8.5C10 10.433 11.567 12 13.5 12H12C9.23858 12 7 14.2386 7 17C7 17.5523 7.44772 18 8 18H19C19.5523 18 20 17.5523 20 17C20 14.2386 17.7614 12 15 12H13.5C15.433 12 17 10.433 17 8.5V7.5C17 5.567 15.433 4 13.5 4Z"/>
</mask>
<path fill-rule="evenodd" clip-rule="evenodd" d="M13.5 4C11.567 4 10 5.567 10 7.5V8.5C10 10.433 11.567 12 13.5 12H12C9.23858 12 7 14.2386 7 17C7 17.5523 7.44772 18 8 18H19C19.5523 18 20 17.5523 20 17C20 14.2386 17.7614 12 15 12H13.5C15.433 12 17 10.433 17 8.5V7.5C17 5.567 15.433 4 13.5 4Z" fill="white"/>
<path d="M11 7.5C11 6.11929 12.1193 5 13.5 5V3C11.0147 3 9 5.01472 9 7.5H11ZM11 8.5V7.5H9V8.5H11ZM13.5 11C12.1193 11 11 9.88071 11 8.5H9C9 10.9853 11.0147 13 13.5 13V11ZM12 13H13.5V11H12V13ZM8 17C8 14.7909 9.79086 13 12 13V11C8.68629 11 6 13.6863 6 17H8ZM8 17H8H6C6 18.1046 6.89543 19 8 19V17ZM19 17H8V19H19V17ZM19 17V19C20.1046 19 21 18.1046 21 17H19ZM15 13C17.2091 13 19 14.7909 19 17H21C21 13.6863 18.3137 11 15 11V13ZM13.5 13H15V11H13.5V13ZM16 8.5C16 9.88071 14.8807 11 13.5 11V13C15.9853 13 18 10.9853 18 8.5H16ZM16 7.5V8.5H18V7.5H16ZM13.5 5C14.8807 5 16 6.11929 16 7.5H18C18 5.01472 15.9853 3 13.5 3V5Z" fill="#30343D" mask="url(#path-2-inside-1_259_9993)"/>
</svg>
