<svg width="22" height="22" viewBox="0 0 22 22" fill="none" xmlns="http://www.w3.org/2000/svg">
<mask id="path-1-inside-1_259_10005" fill="white">
<path fill-rule="evenodd" clip-rule="evenodd" d="M7.07209 4C5.56393 4 4.34132 5.22261 4.34132 6.73077V7.51099C4.34132 9.01916 5.56393 10.2418 7.07209 10.2418C8.58026 10.2418 9.80286 9.01915 9.80286 7.51099V6.73077C9.80286 5.22261 8.58026 4 7.07209 4ZM5.9011 10.242C3.74658 10.242 2 11.9886 2 14.1431C2 14.574 2.34931 14.9234 2.78022 14.9234H11.3626C11.7936 14.9234 12.1429 14.574 12.1429 14.1431C12.1429 11.9886 10.3963 10.242 8.24177 10.242H5.9011Z"/>
</mask>
<path fill-rule="evenodd" clip-rule="evenodd" d="M7.07209 4C5.56393 4 4.34132 5.22261 4.34132 6.73077V7.51099C4.34132 9.01916 5.56393 10.2418 7.07209 10.2418C8.58026 10.2418 9.80286 9.01915 9.80286 7.51099V6.73077C9.80286 5.22261 8.58026 4 7.07209 4ZM5.9011 10.242C3.74658 10.242 2 11.9886 2 14.1431C2 14.574 2.34931 14.9234 2.78022 14.9234H11.3626C11.7936 14.9234 12.1429 14.574 12.1429 14.1431C12.1429 11.9886 10.3963 10.242 8.24177 10.242H5.9011Z" fill="white"/>
<path d="M5.34132 6.73077C5.34132 5.77489 6.11621 5 7.07209 5V3C5.01164 3 3.34132 4.67033 3.34132 6.73077H5.34132ZM5.34132 7.51099V6.73077H3.34132V7.51099H5.34132ZM7.07209 9.24176C6.11621 9.24176 5.34132 8.46687 5.34132 7.51099H3.34132C3.34132 9.57144 5.01164 11.2418 7.07209 11.2418V9.24176ZM8.80286 7.51099C8.80286 8.46687 8.02797 9.24176 7.07209 9.24176V11.2418C9.13254 11.2418 10.8029 9.57144 10.8029 7.51099H8.80286ZM8.80286 6.73077V7.51099H10.8029V6.73077H8.80286ZM7.07209 5C8.02797 5 8.80286 5.77489 8.80286 6.73077H10.8029C10.8029 4.67032 9.13254 3 7.07209 3V5ZM3 14.1431C3 12.5409 4.29887 11.242 5.9011 11.242V9.24203C3.1943 9.24203 1 11.4363 1 14.1431H3ZM2.78022 13.9234C2.9016 13.9234 3 14.0218 3 14.1431H1C1 15.1263 1.79703 15.9234 2.78022 15.9234V13.9234ZM11.3626 13.9234H2.78022V15.9234H11.3626V13.9234ZM11.1429 14.1431C11.1429 14.0218 11.2413 13.9234 11.3626 13.9234V15.9234C12.3458 15.9234 13.1429 15.1263 13.1429 14.1431H11.1429ZM8.24177 11.242C9.844 11.242 11.1429 12.5409 11.1429 14.1431H13.1429C13.1429 11.4363 10.9486 9.24203 8.24177 9.24203V11.242ZM5.9011 11.242H8.24177V9.24203H5.9011V11.242Z" fill="#30343D" mask="url(#path-1-inside-1_259_10005)"/>
<mask id="path-3-inside-2_259_10005" fill="white">
<path fill-rule="evenodd" clip-rule="evenodd" d="M16.0721 4C14.5639 4 13.3413 5.22261 13.3413 6.73077V7.51099C13.3413 9.01916 14.5639 10.2418 16.0721 10.2418C17.5803 10.2418 18.8029 9.01915 18.8029 7.51099V6.73077C18.8029 5.22261 17.5803 4 16.0721 4ZM14.9011 10.242C12.7466 10.242 11 11.9886 11 14.1431C11 14.574 11.3493 14.9234 11.7802 14.9234H20.3626C20.7936 14.9234 21.1429 14.574 21.1429 14.1431C21.1429 11.9886 19.3963 10.242 17.2418 10.242H14.9011Z"/>
</mask>
<path fill-rule="evenodd" clip-rule="evenodd" d="M16.0721 4C14.5639 4 13.3413 5.22261 13.3413 6.73077V7.51099C13.3413 9.01916 14.5639 10.2418 16.0721 10.2418C17.5803 10.2418 18.8029 9.01915 18.8029 7.51099V6.73077C18.8029 5.22261 17.5803 4 16.0721 4ZM14.9011 10.242C12.7466 10.242 11 11.9886 11 14.1431C11 14.574 11.3493 14.9234 11.7802 14.9234H20.3626C20.7936 14.9234 21.1429 14.574 21.1429 14.1431C21.1429 11.9886 19.3963 10.242 17.2418 10.242H14.9011Z" fill="white"/>
<path d="M14.3413 6.73077C14.3413 5.77489 15.1162 5 16.0721 5V3C14.0116 3 12.3413 4.67033 12.3413 6.73077H14.3413ZM14.3413 7.51099V6.73077H12.3413V7.51099H14.3413ZM16.0721 9.24176C15.1162 9.24176 14.3413 8.46687 14.3413 7.51099H12.3413C12.3413 9.57144 14.0116 11.2418 16.0721 11.2418V9.24176ZM17.8029 7.51099C17.8029 8.46687 17.028 9.24176 16.0721 9.24176V11.2418C18.1325 11.2418 19.8029 9.57144 19.8029 7.51099H17.8029ZM17.8029 6.73077V7.51099H19.8029V6.73077H17.8029ZM16.0721 5C17.028 5 17.8029 5.77489 17.8029 6.73077H19.8029C19.8029 4.67032 18.1325 3 16.0721 3V5ZM12 14.1431C12 12.5409 13.2989 11.242 14.9011 11.242V9.24203C12.1943 9.24203 10 11.4363 10 14.1431H12ZM11.7802 13.9234C11.9016 13.9234 12 14.0218 12 14.1431H10C10 15.1263 10.797 15.9234 11.7802 15.9234V13.9234ZM20.3626 13.9234H11.7802V15.9234H20.3626V13.9234ZM20.1429 14.1431C20.1429 14.0218 20.2413 13.9234 20.3626 13.9234V15.9234C21.3458 15.9234 22.1429 15.1263 22.1429 14.1431H20.1429ZM17.2418 11.242C18.844 11.242 20.1429 12.5409 20.1429 14.1431H22.1429C22.1429 11.4363 19.9486 9.24203 17.2418 9.24203V11.242ZM14.9011 11.242H17.2418V9.24203H14.9011V11.242Z" fill="#30343D" mask="url(#path-3-inside-2_259_10005)"/>
<mask id="path-5-inside-3_259_10005" fill="white">
<path fill-rule="evenodd" clip-rule="evenodd" d="M11.5 5C9.567 5 8 6.567 8 8.5V9.5C8 11.433 9.567 13 11.5 13H10C7.23858 13 5 15.2386 5 18C5 18.5523 5.44772 19 6 19H17C17.5523 19 18 18.5523 18 18C18 15.2386 15.7614 13 13 13H11.5C13.433 13 15 11.433 15 9.5V8.5C15 6.567 13.433 5 11.5 5Z"/>
</mask>
<path fill-rule="evenodd" clip-rule="evenodd" d="M11.5 5C9.567 5 8 6.567 8 8.5V9.5C8 11.433 9.567 13 11.5 13H10C7.23858 13 5 15.2386 5 18C5 18.5523 5.44772 19 6 19H17C17.5523 19 18 18.5523 18 18C18 15.2386 15.7614 13 13 13H11.5C13.433 13 15 11.433 15 9.5V8.5C15 6.567 13.433 5 11.5 5Z" fill="white"/>
<path d="M9 8.5C9 7.11929 10.1193 6 11.5 6V4C9.01472 4 7 6.01472 7 8.5H9ZM9 9.5V8.5H7V9.5H9ZM11.5 12C10.1193 12 9 10.8807 9 9.5H7C7 11.9853 9.01472 14 11.5 14V12ZM10 14H11.5V12H10V14ZM6 18C6 15.7909 7.79086 14 10 14V12C6.68629 12 4 14.6863 4 18H6ZM6 18H6H4C4 19.1046 4.89543 20 6 20V18ZM17 18H6V20H17V18ZM17 18V20C18.1046 20 19 19.1046 19 18H17ZM13 14C15.2091 14 17 15.7909 17 18H19C19 14.6863 16.3137 12 13 12V14ZM11.5 14H13V12H11.5V14ZM14 9.5C14 10.8807 12.8807 12 11.5 12V14C13.9853 14 16 11.9853 16 9.5H14ZM14 8.5V9.5H16V8.5H14ZM11.5 6C12.8807 6 14 7.11929 14 8.5H16C16 6.01472 13.9853 4 11.5 4V6Z" fill="#30343D" mask="url(#path-5-inside-3_259_10005)"/>
</svg>
