<svg width="14" height="16" viewBox="0 0 14 16" fill="none" xmlns="http://www.w3.org/2000/svg">
<path fill-rule="evenodd" clip-rule="evenodd" d="M4 1H9.6C10.1523 1 10.6 1.44771 10.6 2V14C10.6 14.5523 10.1523 15 9.6 15H4C3.44771 15 3 14.5523 3 14V2C3 1.44772 3.44772 1 4 1ZM2 2C2 0.895431 2.89543 0 4 0H9.6C10.7046 0 11.6 0.895431 11.6 2V14C11.6 15.1046 10.7046 16 9.6 16H4C2.89543 16 2 15.1046 2 14V2ZM5.20002 12.7C4.92388 12.7 4.70002 12.9239 4.70002 13.2C4.70002 13.4761 4.92388 13.7 5.20002 13.7H8.40002C8.67617 13.7 8.90002 13.4761 8.90002 13.2C8.90002 12.9239 8.67617 12.7 8.40002 12.7H5.20002Z" fill="#30343D"/>
</svg>
