<svg width="22" height="22" viewBox="0 0 22 22" fill="none" xmlns="http://www.w3.org/2000/svg">
<mask id="path-1-inside-1_289_10592" fill="white">
<path fill-rule="evenodd" clip-rule="evenodd" d="M13 7.5V8.5C13 9.88071 11.8807 11 10.5 11C9.11929 11 8 9.88071 8 8.5V7.5C8 6.11929 9.11929 5 10.5 5C11.8807 5 13 6.11929 13 7.5ZM7 7.5C7 5.567 8.567 4 10.5 4C12.433 4 14 5.567 14 7.5V8.5C14 10.433 12.433 12 10.5 12C8.567 12 7 10.433 7 8.5V7.5ZM10.5 12H9C6.23858 12 4 14.2386 4 17C4 17.5523 4.44772 18 5 18H16C16.5523 18 17 17.5523 17 17C17 14.2386 14.7614 12 12 12H10.5ZM5 17C5 14.7909 6.79086 13 9 13H12C14.2091 13 16 14.7909 16 17H5Z"/>
</mask>
<path fill-rule="evenodd" clip-rule="evenodd" d="M13 7.5V8.5C13 9.88071 11.8807 11 10.5 11C9.11929 11 8 9.88071 8 8.5V7.5C8 6.11929 9.11929 5 10.5 5C11.8807 5 13 6.11929 13 7.5ZM7 7.5C7 5.567 8.567 4 10.5 4C12.433 4 14 5.567 14 7.5V8.5C14 10.433 12.433 12 10.5 12C8.567 12 7 10.433 7 8.5V7.5ZM10.5 12H9C6.23858 12 4 14.2386 4 17C4 17.5523 4.44772 18 5 18H16C16.5523 18 17 17.5523 17 17C17 14.2386 14.7614 12 12 12H10.5ZM5 17C5 14.7909 6.79086 13 9 13H12C14.2091 13 16 14.7909 16 17H5Z" fill="white"/>
<path d="M5 17H4L4 18H5V17ZM16 17V18H17V17H16ZM14 8.5V7.5H12V8.5H14ZM10.5 12C12.433 12 14 10.433 14 8.5H12C12 9.32843 11.3284 10 10.5 10V12ZM7 8.5C7 10.433 8.567 12 10.5 12V10C9.67157 10 9 9.32843 9 8.5H7ZM7 7.5V8.5H9V7.5H7ZM10.5 4C8.567 4 7 5.567 7 7.5H9C9 6.67157 9.67157 6 10.5 6V4ZM14 7.5C14 5.567 12.433 4 10.5 4V6C11.3284 6 12 6.67157 12 7.5H14ZM10.5 3C8.01472 3 6 5.01472 6 7.5H8C8 6.11929 9.11929 5 10.5 5V3ZM15 7.5C15 5.01472 12.9853 3 10.5 3V5C11.8807 5 13 6.11929 13 7.5H15ZM15 8.5V7.5H13V8.5H15ZM10.5 13C12.9853 13 15 10.9853 15 8.5H13C13 9.88071 11.8807 11 10.5 11V13ZM6 8.5C6 10.9853 8.01472 13 10.5 13V11C9.11929 11 8 9.88071 8 8.5H6ZM6 7.5V8.5H8V7.5H6ZM10.5 11H9V13H10.5V11ZM9 11C5.68629 11 3 13.6863 3 17H5C5 14.7909 6.79086 13 9 13V11ZM3 17C3 18.1046 3.89543 19 5 19V17H5H3ZM5 19H16V17H5V19ZM16 19C17.1046 19 18 18.1046 18 17H16V19ZM18 17C18 13.6863 15.3137 11 12 11V13C14.2091 13 16 14.7909 16 17H18ZM12 11H10.5V13H12V11ZM9 12C6.23858 12 4 14.2386 4 17H6C6 15.3431 7.34315 14 9 14V12ZM12 12H9V14H12V12ZM17 17C17 14.2386 14.7614 12 12 12V14C13.6569 14 15 15.3431 15 17H17ZM5 18H16V16H5V18Z" fill="#30343D" mask="url(#path-1-inside-1_289_10592)"/>
</svg>
