<svg width="22" height="22" viewBox="0 0 22 22" fill="none" xmlns="http://www.w3.org/2000/svg">
<path fill-rule="evenodd" clip-rule="evenodd" d="M4 4L9.52941 4L9.52941 9.52941L4 9.52941L4 4ZM3 4C3 3.44771 3.44772 3 4 3H9.52941C10.0817 3 10.5294 3.44772 10.5294 4V9.52941C10.5294 10.0817 10.0817 10.5294 9.52941 10.5294H4C3.44771 10.5294 3 10.0817 3 9.52941V4ZM4 12.4706L9.52941 12.4706L9.52941 18L4 18L4 12.4706ZM3 12.4706C3 11.9183 3.44772 11.4706 4 11.4706H9.52941C10.0817 11.4706 10.5294 11.9183 10.5294 12.4706V18C10.5294 18.5523 10.0817 19 9.52941 19H4C3.44771 19 3 18.5523 3 18V12.4706ZM18 4L12.4706 4L12.4706 9.52941L18 9.52941L18 4ZM12.4706 3C11.9183 3 11.4706 3.44771 11.4706 4V9.52941C11.4706 10.0817 11.9183 10.5294 12.4706 10.5294H18C18.5523 10.5294 19 10.0817 19 9.52941V4C19 3.44772 18.5523 3 18 3H12.4706ZM12.4706 12.4706L18 12.4706L18 18L12.4706 18L12.4706 12.4706ZM11.4706 12.4706C11.4706 11.9183 11.9183 11.4706 12.4706 11.4706H18C18.5523 11.4706 19 11.9183 19 12.4706V18C19 18.5523 18.5523 19 18 19H12.4706C11.9183 19 11.4706 18.5523 11.4706 18V12.4706Z" fill="#4064BF"/>
</svg>
