<svg width="68" height="22" fill="none" xmlns="http://www.w3.org/2000/svg"><path d="M27.583 3.653h.99v7.01h4.18v.354h-5.17V3.653zm7.191 7.364V3.645h5.178v.372h-4.171V6.49h2.968v.355h-2.968v3.816h4.171v.355h-5.178zm6.269-7.364h.99l2.447 6.135 2.449-6.135h.383l-2.96 7.364h-.383l-2.926-7.364zm7.72 7.364V3.645h5.177v.372h-4.17V6.49h2.968v.355h-2.969v3.816h4.171v.355h-5.177zm7.207-7.364h.998v7.01h4.17v.354H55.97V3.653zM27.583 21.434v-7.372h5.178v.372h-4.172v2.475h2.969v.355H28.59v3.816h4.17v.355h-5.177zm11.643-5.788l-.315.035c0-.251-.06-.476-.162-.658a1.438 1.438 0 00-.444-.467 1.96 1.96 0 00-.64-.286 2.997 2.997 0 00-.733-.095 2.741 2.741 0 00-1.468.398c-.178.121-.315.26-.4.424a.989.989 0 00-.137.502c.009.32.111.571.325.77.204.2.469.372.784.52a14.8 14.8 0 001.024.423c.367.13.708.295 1.023.485.316.19.58.424.802.71.222.285.333.648.35 1.099.017.276-.034.553-.154.813-.11.26-.281.493-.511.692a2.358 2.358 0 01-.845.476 3.408 3.408 0 01-1.16.182c-.298 0-.588-.035-.878-.113a2.533 2.533 0 01-.76-.329 1.835 1.835 0 01-.537-.553 1.513 1.513 0 01-.205-.796l.29-.035c0 .25.06.476.17.666.112.19.265.346.453.476a2 2 0 00.631.286c.239.06.478.095.725.095.307 0 .58-.035.828-.113.247-.077.46-.173.64-.302.178-.13.315-.269.409-.442a1.03 1.03 0 00.145-.51c0-.242-.06-.459-.18-.623a1.645 1.645 0 00-.486-.45 4.223 4.223 0 00-.682-.346 78.13 78.13 0 00-.776-.312 12.734 12.734 0 01-.785-.346 3.238 3.238 0 01-.682-.45 2.066 2.066 0 01-.495-.623 2.05 2.05 0 01-.213-.865 1.84 1.84 0 01.657-1.471c.221-.2.503-.355.844-.476a3.408 3.408 0 011.16-.182c.307 0 .597.035.879.112.281.078.537.182.759.33.221.146.4.337.537.553.145.225.213.485.213.796zm1.612-1.212v-.372h6.406v.372h-2.696v7h-.998v-7h-2.712zm7.139 7l2.636-6.61-.298-.762h1.006l2.934 7.373h-.998l-.844-2.086h-3.216l-.836 2.085h-.383zm1.357-2.44h2.951l-1.475-3.686-1.476 3.686zm5.663-4.56v-.372h6.406v.372h-2.695v7h-.998v-7h-2.713zm7.49 7v-7.372h5.178v.372h-4.171v2.475h2.968v.355h-2.968v3.816h4.17v.355h-5.177zm-41.139-4.188l-4.36-3.643 2.62-7.727v-.009c0-.017.008-.026.008-.043v-.078c0-.017 0-.026-.008-.043 0-.009 0-.009-.009-.018a.066.066 0 00-.017-.034c0-.009 0-.009-.009-.017a.186.186 0 00-.025-.044l-.009-.008c-.008-.009-.017-.026-.034-.035 0 0-.008-.009-.017-.009a.117.117 0 00-.034-.026c-.009 0-.009-.008-.017-.008-.017-.009-.034-.018-.043-.026L4.433.018a.301.301 0 00-.401.303l.41 12.434-4.274 2.111a.314.314 0 00-.145.399l2.857 6.48a.297.297 0 00.273.182h17.998a.304.304 0 00.299-.302V17.47a.28.28 0 00-.102-.225zm-8.88 4.084v-3.764l4.171-3.461 3.506 2.933-3.779 4.301h-3.898v-.009zm6.338-14.96l-2.431 7.155-1.365 1.134c1.007-2.916 2.337-6.724 2.772-7.788l1.024-.502zM6.233 11.906L5.9 1.203l.879.32c-.009.018-.009.035-.009.052v3.47c0 .07.051.121.12.121a.117.117 0 00.119-.12V1.61l11.55 4.214-12.326 6.083zM5.66 1.117l.341 10.911-.92.459L4.696.762l.964.355zM.722 15.299l4.189-2.068s.008 0 .008-.009l12.547-6.195c-.23.57-.63 1.687-1.398 3.859a395.089 395.089 0 00-1.408 4.067l-2.687 2.233a.32.32 0 00-.11.233v3.911h-8.48L.724 15.3zm15.96 6.031l3.642-4.144.529.44v.14l-1.553 1.8c-.042.051-.042.129.009.172a.136.136 0 00.077.026.136.136 0 00.094-.043l1.373-1.592v3.201h-4.171z" fill="#30343D"/></svg>