<?xml version="1.0" encoding="utf-8"?><svg viewBox="0 0 65 65" xmlns="http://www.w3.org/2000/svg" xmlns:xlink="http://www.w3.org/1999/xlink"><style>:root>svg{display:none}:root>svg:target{display:block}</style><svg fill="none" viewBox="0 0 24 24" id="icon-acc-arr" xmlns="http://www.w3.org/2000/svg"><path d="M6 9l5.5 5.5L17 9" stroke="#30343D"/></svg><svg fill="none" viewBox="0 0 20 20" id="icon-avito" xmlns="http://www.w3.org/2000/svg"><g clip-path="url(#abclip0)"><path d="M14.44 20a5.345 5.345 0 100-10.69 5.345 5.345 0 000 10.69z" fill="#97CF26"/><path d="M4.393 17.143a2.488 2.488 0 100-4.976 2.488 2.488 0 000 4.976z" fill="#A169F7"/><path d="M14.44 8.048a3.44 3.44 0 100-6.881 3.44 3.44 0 000 6.88z" fill="#FF6163"/><path d="M4.393 9a4.393 4.393 0 100-8.786 4.393 4.393 0 000 8.786z" fill="#0AF"/></g><defs><clipPath id="abclip0"><path fill="#fff" d="M0 0h20v20H0z"/></clipPath></defs></svg><svg fill="none" viewBox="0 0 14 14" id="icon-btn-close" xmlns="http://www.w3.org/2000/svg"><path fill-rule="evenodd" clip-rule="evenodd" d="M14 7A7 7 0 110 7a7 7 0 0114 0zm-7 .707l-2.646 2.647-.708-.708L6.293 7 3.646 4.354l.708-.708L7 6.293l2.646-2.647.708.708L7.707 7l2.647 2.646-.708.708L7 7.707z" fill="#4064BF"/></svg><svg fill="none" viewBox="0 0 24 24" id="icon-calendar" xmlns="http://www.w3.org/2000/svg"><path d="M6.75 3v.75h-3v16.5h16.5V3.75h-3V3h-1.5v.75h-7.5V3h-1.5zm-1.5 2.25h1.5V6h1.5v-.75h7.5V6h1.5v-.75h1.5v1.5H5.25v-1.5zm0 3h13.5v10.5H5.25V8.25zm4.5 1.5v1.5h1.5v-1.5h-1.5zm3 0v1.5h1.5v-1.5h-1.5zm3 0v1.5h1.5v-1.5h-1.5zm-9 3v1.5h1.5v-1.5h-1.5zm3 0v1.5h1.5v-1.5h-1.5zm3 0v1.5h1.5v-1.5h-1.5zm3 0v1.5h1.5v-1.5h-1.5zm-9 3v1.5h1.5v-1.5h-1.5zm3 0v1.5h1.5v-1.5h-1.5zm3 0v1.5h1.5v-1.5h-1.5z" fill="currentColor"/></svg><svg fill="none" viewBox="0 0 10 7" id="icon-check" xmlns="http://www.w3.org/2000/svg"><path d="M.538 2.93l3.258 3.257 4.721-4.721" stroke="currentColor" stroke-linecap="round"/></svg><svg fill="none" viewBox="0 0 15 20" id="icon-cian" xmlns="http://www.w3.org/2000/svg"><path fill-rule="evenodd" clip-rule="evenodd" d="M10.54 4.935A1.52 1.52 0 019.028 3.41a1.52 1.52 0 011.514-1.527 1.52 1.52 0 011.513 1.527 1.52 1.52 0 01-1.514 1.526zm0-4.849c-1.823 0-3.3 1.49-3.3 3.33a3.333 3.333 0 00.67 2.011l.22.307 2.41 2.933 2.63-3.24c.437-.58.672-1.286.67-2.011 0-1.84-1.477-3.33-3.3-3.33zm1.26 15.47V9.97H9.355v2.625L6.912 9.632.108 17.878l2.263 1.9 4.54-5.502 4.542 5.503 2.262-1.9-1.915-2.322z" fill="#0468FF"/></svg><svg fill="none" viewBox="0 0 22 22" id="icon-city" xmlns="http://www.w3.org/2000/svg"><path fill-rule="evenodd" clip-rule="evenodd" d="M13.319 7.938a.298.298 0 00.362 0C13.776 7.867 16.01 6.147 16 4c0-1.47-1.122-2.667-2.5-2.667S11 2.53 11 4c-.009 2.148 2.224 3.868 2.319 3.94zM13.5 2c1.034 0 1.875.897 1.875 2.002.007 1.48-1.371 2.808-1.875 3.243-.503-.436-1.882-1.764-1.875-3.245 0-1.103.84-2 1.875-2zm.833 1.834a.833.833 0 11-1.667 0 .833.833 0 011.667 0zm2.02 12.813l-2.488-2.489V9h-1v4.158L9.354 9.647 9 9.293l-.354.354-7 7 .708.707L9 10.707l6.646 6.647.708-.707z" fill="#30343D"/></svg><svg fill="none" viewBox="0 0 24 24" id="icon-client" xmlns="http://www.w3.org/2000/svg"><g clip-path="url(#ahclip0_876_14986)"><path d="M12 3.75c.953 0 1.828.234 2.625.703a5.157 5.157 0 011.922 1.922c.469.797.703 1.672.703 2.625 0 .89-.21 1.719-.633 2.484a5.125 5.125 0 01-1.687 1.875c.89.391 1.68.93 2.367 1.618a7.178 7.178 0 011.617 2.367c.39.922.586 1.89.586 2.906H18a5.696 5.696 0 00-.82-3A5.838 5.838 0 0015 15.07a5.696 5.696 0 00-3-.82 5.818 5.818 0 00-3.023.82 6.072 6.072 0 00-2.18 2.18 5.823 5.823 0 00-.797 3H4.5c0-1.016.195-1.984.586-2.906.375-.89.906-1.68 1.594-2.367a7.977 7.977 0 012.39-1.618 5.33 5.33 0 01-1.71-1.875A5.22 5.22 0 016.75 9c0-.953.234-1.828.703-2.625a5.21 5.21 0 011.899-1.922A5.209 5.209 0 0112 3.75zm0 1.5c-.688 0-1.32.172-1.898.516a3.778 3.778 0 00-1.36 1.359A3.653 3.653 0 008.25 9c0 .688.164 1.32.492 1.898a4.04 4.04 0 001.36 1.36A3.78 3.78 0 0012 12.75c.688 0 1.313-.164 1.875-.492a3.78 3.78 0 001.36-1.36c.343-.578.515-1.21.515-1.898s-.172-1.313-.516-1.875a3.552 3.552 0 00-1.359-1.36A3.525 3.525 0 0012 5.25z" fill="#253858"/></g><defs><clipPath id="ahclip0_876_14986"><path fill="#fff" d="M0 0h24v24H0z"/></clipPath></defs></svg><svg fill="none" viewBox="0 0 24 24" id="icon-clients" xmlns="http://www.w3.org/2000/svg"><g clip-path="url(#aiclip0_2672_3953)"><path d="M12 3.75c.953 0 1.828.234 2.625.703a5.157 5.157 0 011.922 1.922c.469.797.703 1.672.703 2.625 0 .89-.21 1.719-.633 2.484a5.125 5.125 0 01-1.687 1.875c.89.391 1.68.93 2.367 1.618a7.178 7.178 0 011.617 2.367c.39.922.586 1.89.586 2.906H18a5.696 5.696 0 00-.82-3A5.838 5.838 0 0015 15.07a5.696 5.696 0 00-3-.82 5.818 5.818 0 00-3.023.82 6.072 6.072 0 00-2.18 2.18 5.823 5.823 0 00-.797 3H4.5c0-1.016.195-1.984.586-2.906.375-.89.906-1.68 1.594-2.367a7.977 7.977 0 012.39-1.618 5.33 5.33 0 01-1.71-1.875A5.22 5.22 0 016.75 9c0-.953.234-1.828.703-2.625a5.21 5.21 0 011.899-1.922A5.209 5.209 0 0112 3.75zm0 1.5c-.688 0-1.32.172-1.898.516a3.778 3.778 0 00-1.36 1.359A3.653 3.653 0 008.25 9c0 .688.164 1.32.492 1.898a4.04 4.04 0 001.36 1.36A3.78 3.78 0 0012 12.75c.688 0 1.313-.164 1.875-.492a3.78 3.78 0 001.36-1.36c.343-.578.515-1.21.515-1.898s-.172-1.313-.516-1.875a3.552 3.552 0 00-1.359-1.36A3.525 3.525 0 0012 5.25z" fill="#253858"/></g><defs><clipPath id="aiclip0_2672_3953"><path fill="#fff" d="M0 0h24v24H0z"/></clipPath></defs></svg><svg fill="none" viewBox="0 0 24 24" id="icon-close" xmlns="http://www.w3.org/2000/svg"><path d="M5.414 4.336L4.336 5.414 10.922 12l-6.586 6.586 1.078 1.078L12 13.078l6.586 6.586 1.078-1.078L13.078 12l6.586-6.586-1.078-1.078L12 10.922 5.414 4.336z" fill="currentColor"/></svg><svg fill="none" viewBox="0 0 22 23" id="icon-close-cyrcle" xmlns="http://www.w3.org/2000/svg"><path fill-rule="evenodd" clip-rule="evenodd" d="M18 11.5a7 7 0 11-14 0 7 7 0 0114 0zm-7 .707l-2.646 2.647-.708-.708 2.647-2.646-2.647-2.646.708-.708L11 10.793l2.646-2.647.708.708-2.647 2.646 2.647 2.646-.708.708L11 12.207z" fill="#4064BF"/></svg><svg fill="none" viewBox="0 0 20 20" id="icon-corner-arr" xmlns="http://www.w3.org/2000/svg"><path d="M12.841 6.175L11.666 5l-5 5 5 5 1.175-1.175L9.024 10l3.817-3.825z" fill="#253858"/></svg><svg fill="none" viewBox="0 0 24 24" id="icon-dashboard" xmlns="http://www.w3.org/2000/svg"><path d="M12 2.25a9.546 9.546 0 00-4.922 1.336 9.596 9.596 0 00-3.492 3.492A9.546 9.546 0 002.25 12c0 1.766.445 3.406 1.336 4.922a9.596 9.596 0 003.492 3.492A9.546 9.546 0 0012 21.75a9.547 9.547 0 004.922-1.336 9.597 9.597 0 003.492-3.492A9.547 9.547 0 0021.75 12a9.546 9.546 0 00-1.336-4.922 9.596 9.596 0 00-3.492-3.492A9.546 9.546 0 0012 2.25zm-.844 1.547h.094v8.508l.21.234 5.837 5.813a7.89 7.89 0 01-2.438 1.406A8.335 8.335 0 0112 20.25c-1.5 0-2.89-.375-4.172-1.125a8.356 8.356 0 01-2.953-2.953A8.114 8.114 0 013.75 12c0-1.406.328-2.719.984-3.938a8.222 8.222 0 012.672-2.906 8.009 8.009 0 013.75-1.36zm1.594 0a8.108 8.108 0 013.586 1.219 7.95 7.95 0 012.648 2.648 8.108 8.108 0 011.22 3.586H12.75V3.797zm1.078 8.953h6.375a8.712 8.712 0 01-.586 2.46 7.682 7.682 0 01-1.265 2.087l-4.524-4.547z" fill="currentColor"/></svg><svg fill="none" viewBox="0 0 22 23" id="icon-deal" xmlns="http://www.w3.org/2000/svg"><path d="M11 3.5l-7 6.518V19.5h14v-9.482L11 3.5z" stroke="#30343D"/><path d="M10.71 7.904h.793v1.188c.24.024.462.078.666.162.204.078.38.186.53.324.157.138.28.306.37.504.096.198.15.426.162.684h-.765a1.015 1.015 0 00-.171-.468 1.021 1.021 0 00-.315-.306 1.242 1.242 0 00-.432-.162 2.196 2.196 0 00-.495-.054c-.168 0-.34.015-.513.045a1.44 1.44 0 00-.46.162.93.93 0 00-.341.306.86.86 0 00-.126.486c0 .24.06.432.18.576.126.144.279.255.459.333.144.06.297.111.459.153l.504.126c.168.036.336.075.504.117.168.036.33.078.486.126.372.12.666.3.882.54.216.234.324.555.324.963 0 .306-.051.573-.153.801a1.566 1.566 0 01-.423.558c-.174.15-.381.267-.621.351-.24.078-.495.126-.765.144v1.179h-.783v-1.197a3.135 3.135 0 01-.72-.153 2.265 2.265 0 01-.621-.324 1.952 1.952 0 01-.477-.513 2.14 2.14 0 01-.27-.72h.819c.06.204.153.372.279.504.126.132.27.237.432.315.162.078.336.132.522.162.192.03.38.045.567.045.18 0 .354-.018.522-.054.174-.042.327-.105.459-.189a.957.957 0 00.315-.324.922.922 0 00.117-.477c0-.282-.075-.492-.225-.63a1.473 1.473 0 00-.603-.315 4.576 4.576 0 00-.531-.135l-.558-.108c-.18-.042-.36-.09-.54-.144a2.69 2.69 0 01-.504-.207 1.664 1.664 0 01-.612-.54c-.156-.234-.234-.531-.234-.891 0-.294.05-.546.153-.756.108-.216.249-.396.423-.54a1.9 1.9 0 01.603-.333c.234-.078.477-.126.729-.144v-1.17z" fill="#30343D"/></svg><svg fill="none" viewBox="0 0 28 29" id="icon-direc" xmlns="http://www.w3.org/2000/svg"><path d="M16.776 5.788H2.5V27h19.035V10.333m-4.76-4.545l4.76 4.545m-4.76-4.545v4.545h4.76M6.465 2h13.483L25.5 8.06v13.637M6.466 11.849h5.551m-5.551 4.545h3.172m-3.172 4.545h10.31" stroke="#4064BF"/></svg><svg fill="none" viewBox="0 0 33 33" id="icon-doc" xmlns="http://www.w3.org/2000/svg"><path d="M20.7 1.5l.693-.72L20.7.5v1zM28.5 9h1l-.307-.72L28.5 9zm-11 1.73a1 1 0 10-2 0h2zm-1 9.808l-.71.704a1 1 0 001.42 0l-.71-.704zm4.71-3.334a1 1 0 00-1.42-1.408l1.42 1.408zm-8-1.408a1 1 0 00-1.42 1.408l1.42-1.408zm-1.853 7.78a1 1 0 000 2v-2zm10.286 2a1 1 0 000-2v2zM20.7.5H7.929v2H20.7v-2zM3.5 4.962v23.076h2V4.962h-2zM7.929 32.5H25.07v-2H7.93v2zM29.5 28.038V9h-2v19.038h2zM29.193 8.28l-7.8-7.5-1.386 1.442 7.8 7.5 1.386-1.442zM19.7 1.5v5.192h2V1.5h-2zm3.286 8.5H28.5V8h-5.514v2zM19.7 6.692C19.7 8.51 21.162 10 22.986 10V8A1.297 1.297 0 0121.7 6.692h-2zM25.071 32.5c2.455 0 4.429-2.006 4.429-4.462h-2c0 1.369-1.096 2.462-2.429 2.462v2zM3.5 28.038c0 2.456 1.974 4.462 4.429 4.462v-2c-1.333 0-2.429-1.093-2.429-2.462h-2zM7.929.5C5.474.5 3.5 2.507 3.5 4.962h2C5.5 3.593 6.596 2.5 7.929 2.5v-2zM15.5 10.73v9.808h2v-9.807h-2zm1.71 10.512l4-4.038-1.42-1.408-4 4.039 1.42 1.407zm0-1.407l-4-4.039-1.42 1.408 4 4.038 1.42-1.407zm-5.853 5.742h10.286v-2H11.357v2z" fill="currentColor"/></svg><svg fill="none" viewBox="0 0 33 33" id="icon-document" xmlns="http://www.w3.org/2000/svg"><path d="M20.7 1.5l.693-.72L20.7.5v1zM28.5 9h1l-.307-.72L28.5 9zm-11 1.73a1 1 0 10-2 0h2zm-1 9.808l-.71.704a1 1 0 001.42 0l-.71-.704zm4.71-3.334a1 1 0 00-1.42-1.408l1.42 1.408zm-8-1.408a1 1 0 00-1.42 1.408l1.42-1.408zm-1.853 7.78a1 1 0 000 2v-2zm10.286 2a1 1 0 000-2v2zM20.7.5H7.929v2H20.7v-2zM3.5 4.962v23.076h2V4.962h-2zM7.929 32.5H25.07v-2H7.93v2zM29.5 28.038V9h-2v19.038h2zM29.193 8.28l-7.8-7.5-1.386 1.442 7.8 7.5 1.386-1.442zM19.7 1.5v5.192h2V1.5h-2zm3.286 8.5H28.5V8h-5.514v2zM19.7 6.692C19.7 8.51 21.162 10 22.986 10V8A1.297 1.297 0 0121.7 6.692h-2zM25.071 32.5c2.455 0 4.429-2.006 4.429-4.462h-2c0 1.369-1.096 2.462-2.429 2.462v2zM3.5 28.038c0 2.456 1.974 4.462 4.429 4.462v-2c-1.333 0-2.429-1.093-2.429-2.462h-2zM7.929.5C5.474.5 3.5 2.507 3.5 4.962h2C5.5 3.593 6.596 2.5 7.929 2.5v-2zM15.5 10.73v9.808h2v-9.807h-2zm1.71 10.512l4-4.038-1.42-1.408-4 4.039 1.42 1.407zm0-1.407l-4-4.039-1.42 1.408 4 4.038 1.42-1.407zm-5.853 5.742h10.286v-2H11.357v2z" fill="#0052CC"/></svg><svg fill="none" viewBox="0 0 24 24" id="icon-dollar" xmlns="http://www.w3.org/2000/svg"><g clip-path="url(#arclip0_2652_834)"><path d="M11.25 2.25h1.5v1.57a4.404 4.404 0 011.898.82c.579.407 1.032.93 1.36 1.57a4.32 4.32 0 01.492 2.04V9H15v-.75c0-.547-.133-1.047-.398-1.5A2.87 2.87 0 0013.5 5.648 2.912 2.912 0 0012 5.25c-.547 0-1.055.14-1.523.422A2.971 2.971 0 009.398 6.75 2.912 2.912 0 009 8.25c0 .438.078.805.234 1.102.125.25.344.5.657.75.265.203.617.414 1.054.632.297.141.742.329 1.336.563l.07.023c.626.25 1.086.453 1.383.61.516.25.954.515 1.313.797a4 4 0 011.031 1.265c.281.531.422 1.117.422 1.758a4.412 4.412 0 01-1.852 3.61 4.405 4.405 0 01-1.898.82v1.57h-1.5v-1.57a4.747 4.747 0 01-1.922-.797 4.627 4.627 0 01-1.336-1.57A4.46 4.46 0 017.5 15.75V15H9v.75c0 .547.133 1.055.398 1.523.266.454.625.813 1.079 1.079.468.265.976.398 1.523.398.547 0 1.047-.133 1.5-.398a3.163 3.163 0 001.078-1.102c.281-.469.422-.969.422-1.5 0-.438-.078-.805-.234-1.102-.125-.25-.344-.5-.657-.75-.437-.343-1.234-.75-2.39-1.218l-.211-.094a17.832 17.832 0 01-1.313-.563 7.048 7.048 0 01-1.242-.75 4.001 4.001 0 01-1.031-1.265A3.698 3.698 0 017.5 8.25c0-.719.164-1.39.492-2.016a4.563 4.563 0 011.336-1.593 4.58 4.58 0 011.922-.82V2.25z" fill="#253858"/></g><defs><clipPath id="arclip0_2652_834"><path fill="#fff" d="M0 0h24v24H0z"/></clipPath></defs></svg><svg fill="none" viewBox="0 0 25 25" id="icon-domclick" xmlns="http://www.w3.org/2000/svg"><g clip-path="url(#asclip0_155_11612)"><path d="M12.91 22H4.026C2.905 22 2 21.077 2 19.936V8.997c0-.83.42-1.598 1.124-2.027l7.444-4.675a1.94 1.94 0 012.055 0l7.326 4.793c.695.43 1.133 1.288 1.133 2.118l.009 3.703L12.909 22zm-6.365-4.546h6.819l3.181-3.298v-3.974l-5-3.212-5 3.212v7.272z" fill="url(#aspaint0_linear_155_11612)"/><path d="M12.91 22v-6.818c0-1.146 1.136-2.273 2.272-2.273h5.909L12.909 22z" fill="#FBBC33"/></g><defs><linearGradient id="aspaint0_linear_155_11612" x1="2.425" y1="5.928" x2="17.276" y2="19.278" gradientUnits="userSpaceOnUse"><stop stop-color="#6BBD3F"/><stop offset=".62" stop-color="#209A73"/><stop offset="1" stop-color="#0276A2"/></linearGradient><clipPath id="asclip0_155_11612"><path fill="#fff" transform="translate(2 2)" d="M0 0h19.091v20H0z"/></clipPath></defs></svg><svg fill="none" viewBox="0 0 24 24" id="icon-euro" xmlns="http://www.w3.org/2000/svg"><g clip-path="url(#atclip0_2652_839)"><path d="M13.5 3c1 0 1.953.227 2.86.68a7.693 7.693 0 012.343 1.828l-1.148.984a5.815 5.815 0 00-1.875-1.476 4.833 4.833 0 00-4.64.164C10.257 5.617 9.577 6.234 9 7.03A7.966 7.966 0 007.781 9.75h6.469v1.5H7.523A9.466 9.466 0 007.5 12c0 .313.008.563.023.75h6.727v1.5H7.781A7.967 7.967 0 009 16.969c.578.797 1.258 1.422 2.04 1.875a4.966 4.966 0 002.46.656 4.81 4.81 0 002.18-.516 5.817 5.817 0 001.875-1.476l1.148.984a7.693 7.693 0 01-2.344 1.828c-.906.453-1.859.68-2.859.68a6.475 6.475 0 01-3.281-.89c-.985-.579-1.828-1.376-2.531-2.391a10.09 10.09 0 01-1.454-3.469H4.5v-1.5h1.547l-.024-.21A8.728 8.728 0 016 12c0-.125.008-.305.023-.54l.024-.21H4.5v-1.5h1.734C6.516 8.469 7 7.32 7.688 6.305c.703-1.032 1.546-1.836 2.53-2.414A6.474 6.474 0 0113.5 3z" fill="#253858"/></g><defs><clipPath id="atclip0_2652_839"><path fill="#fff" d="M0 0h24v24H0z"/></clipPath></defs></svg><svg fill="none" viewBox="0 0 30 30" id="icon-fab" xmlns="http://www.w3.org/2000/svg"><rect width="30" height="30" rx="15" fill="#4064BF"/><path fill-rule="evenodd" clip-rule="evenodd" d="M10.024 15a.5.5 0 010-1h4.653V9.347a.5.5 0 011 0V14h4.653a.5.5 0 010 1h-4.653v4.653a.5.5 0 11-1 0V15h-4.652z" fill="#fff"/></svg><svg fill="none" viewBox="0 0 25 24" id="icon-footage" xmlns="http://www.w3.org/2000/svg"><path d="M3.834 3v18h18v-6.75h-11.25V3h-6.75zm1.5 1.5h3.75V6h-2.25v1.5h2.25V9h-2.25v1.5h2.25V12h-2.25v1.5h2.25v1.195l-3.75 3.75V4.5zm4.805 11.25h1.195V18h1.5v-2.25h1.5V18h1.5v-2.25h1.5V18h1.5v-2.25h1.5v3.75H6.389l3.75-3.75z" fill="currentColor"/></svg><svg fill="none" viewBox="0 0 22 22" id="icon-header-search" xmlns="http://www.w3.org/2000/svg"><path fill-rule="evenodd" clip-rule="evenodd" d="M19.015 8.972a5.972 5.972 0 11-11.944 0 5.972 5.972 0 0111.944 0zm1 0A6.972 6.972 0 018.48 14.243l-5.773 5.774L2 19.309l5.773-5.773a6.972 6.972 0 1112.243-4.564z" fill="#4064BF"/></svg><svg fill="none" viewBox="0 0 22 22" id="icon-house" xmlns="http://www.w3.org/2000/svg"><path d="M16.881 9.833V18h-3.81v-5.833H9.262V18h-4.19v-7.778M3 12.167L11.167 4l8 8.167" stroke="#30343D"/></svg><svg fill="none" viewBox="0 0 14 16" id="icon-label-map" xmlns="http://www.w3.org/2000/svg"><path fill-rule="evenodd" clip-rule="evenodd" d="M6.162 15.062l.338.38.338-.338.018-.021C7.24 14.624 12 8.943 12 5.5 12 2.454 9.546 0 6.5 0A5.489 5.489 0 001 5.5c0 3.512 4.95 9.35 5.162 9.562zM1.846 5.5A4.64 4.64 0 016.5.846 4.64 4.64 0 0111.154 5.5c0 2.708-3.554 7.277-4.654 8.63-1.1-1.353-4.654-5.922-4.654-8.63zm2.539 0c0 1.185.93 2.116 2.115 2.116S8.616 6.685 8.616 5.5c0-1.184-.931-2.115-2.116-2.115-1.184 0-2.115.93-2.115 2.115zm.846 0c0-.719.55-1.269 1.27-1.269.718 0 1.268.55 1.268 1.27 0 .718-.55 1.268-1.269 1.268-.719 0-1.269-.55-1.269-1.269z" fill="#30343D"/></svg><svg fill="none" viewBox="0 0 17 20" id="icon-land" xmlns="http://www.w3.org/2000/svg"><path d="M8.666.695l-.539.516-4.453 4.476-.75.727.96.469.516.164c.438.14.875.258 1.313.351l-3.305 3.305-.75.727.938.468.445.141c.344.094.602.172.773.234L1.12 14.97l-.726.75.937.469.586.234c.531.187 1.11.36 1.734.515.875.204 1.797.352 2.766.446v2.367h1.5v-2.273l.75.023.75-.023v2.273h1.5v-2.367a18.362 18.362 0 003.774-.727 11.216 11.216 0 001.335-.468l.915-.47-.727-.75-2.695-2.695c.171-.062.43-.14.773-.234l.445-.14.938-.47-.75-.726-3.305-3.305c.438-.093.875-.21 1.313-.351l.515-.164.961-.469-.75-.726L9.205 1.21 8.666.695zm0 2.133l3 2.977-.234.093a5.06 5.06 0 01-.492.141c-.22.063-.524.11-.915.14l-1.359.141-1.36-.14a4.921 4.921 0 01-.913-.14 5.058 5.058 0 01-.493-.142l-.234-.093 3-2.977zm0 3.75l.89.867 3.446 3.446-.211.07a6.006 6.006 0 01-.844.234l-1.382.282 1.007.984 2.743 2.742c-1.485.531-3.36.797-5.626.797-2.265 0-4.148-.266-5.648-.797l2.719-2.742 1.008-.984-1.383-.282a6.004 6.004 0 01-.844-.234l-.21-.07 3.444-3.446.891-.867z" fill="currentColor"/></svg><svg fill="none" viewBox="0 0 23 20" id="icon-m2" xmlns="http://www.w3.org/2000/svg"><g clip-path="url(#baclip0)"><path fill-rule="evenodd" clip-rule="evenodd" d="M22.308 0H6.538v4.23H0V20h15.77v-4.23h6.538V0zm-5.325 9.482v1.053h-4.402v-.962s.914-.46 1.504-.785c.772-.425 1.612-.994 1.677-1.78.05-.608-.457-1.067-1.072-1.067-.704 0-1.087.412-1.304 1.086l-.963-.377c.293-.808.957-1.705 2.258-1.705 1.301 0 2.222.947 2.222 2.055 0 1.388-1.519 2.063-2.412 2.46l-.03.013v.009h2.522zm-12.347 5.27V9.487h1.646l1.539 3.777L9.35 9.486h1.656v5.267H9.86v-3.95l-1.597 3.95h-.863l-1.627-3.95v3.95H4.636z" fill="#3216B5"/></g><defs><clipPath id="baclip0"><path fill="#fff" d="M0 0h22.308v20H0z"/></clipPath></defs></svg><svg fill="none" viewBox="0 0 24 24" id="icon-mail" xmlns="http://www.w3.org/2000/svg"><path d="M2.25 6v13.5h19.5V6H2.25zm3.234 1.5h13.032L12 11.836 5.484 7.5zm-1.734.656l7.828 5.227.422.258.422-.258 7.828-5.227V18H3.75V8.156z" fill="currentColor"/></svg><svg fill="none" viewBox="0 0 22 22" id="icon-mark" xmlns="http://www.w3.org/2000/svg"><path d="M12.448 5.97H5V17h9.931V8.333M12.448 5.97l2.483 2.363M12.448 5.97v2.363h2.483M7.069 4h7.034L17 7.152v7.09m-9.931-5.12h2.897m-2.897 2.363h1.655M7.07 13.849h5.38" stroke="#30343D"/></svg><svg fill="none" viewBox="0 0 24 24" id="icon-notification" xmlns="http://www.w3.org/2000/svg"><path d="M12 2.25c-.422 0-.781.148-1.078.445A1.43 1.43 0 0010.5 3.75l.023.188c-.859.218-1.632.609-2.32 1.171a5.976 5.976 0 00-1.617 2.063A5.778 5.778 0 006 9.75v6.75a.73.73 0 01-.21.54.73.73 0 01-.54.21H4.5v1.5h5.39c-.093.266-.14.516-.14.75 0 .61.219 1.133.656 1.57.453.453.985.68 1.594.68.61 0 1.133-.227 1.57-.68.453-.437.68-.96.68-1.57a2.26 2.26 0 00-.14-.75h5.39v-1.5h-.75a.73.73 0 01-.54-.21.73.73 0 01-.21-.54V9.96c0-.92-.195-1.796-.586-2.624A6.068 6.068 0 0015.82 5.18a5.862 5.862 0 00-2.343-1.242l.023-.188c0-.422-.148-.773-.445-1.055A1.393 1.393 0 0012 2.25zm-.328 3h.469a4.274 4.274 0 012.203.703 4.365 4.365 0 011.57 1.711c.39.719.586 1.484.586 2.297V16.5c0 .234.047.484.14.75H7.36c.093-.266.14-.516.14-.75V9.75c0-.781.18-1.5.54-2.156a4.452 4.452 0 011.523-1.617 4.432 4.432 0 012.109-.727zM12 18.75a.73.73 0 01.54.21c.14.142.21.321.21.54 0 .203-.07.383-.21.54a.73.73 0 01-.54.21.782.782 0 01-.54-.21.782.782 0 01-.21-.54.73.73 0 01.21-.54.782.782 0 01.54-.21z" fill="currentColor"/></svg><svg fill="none" viewBox="0 0 24 24" id="icon-owner" xmlns="http://www.w3.org/2000/svg"><g clip-path="url(#beclip0_2672_3948)"><path d="M2.25 4.5h19.5v15H2.25v-15zM3.75 6v12h2.555a.725.725 0 00.047-.164.322.322 0 01.07-.164c.281-.281.64-.422 1.078-.422.438 0 .797.14 1.078.422a.322.322 0 01.07.164.725.725 0 00.047.164h6.61a.73.73 0 00.047-.164.321.321 0 01.07-.164c.281-.281.64-.422 1.078-.422.438 0 .797.14 1.078.422a.321.321 0 01.07.164.73.73 0 00.047.164h2.555V6H3.75zM9 7.5c.547 0 1.047.14 1.5.422.453.266.813.625 1.078 1.078.281.453.422.953.422 1.5 0 .406-.086.797-.258 1.172-.156.36-.375.68-.656.96.516.345.922.798 1.219 1.36.297.547.445 1.133.445 1.758h-1.5a2.17 2.17 0 00-.656-1.594A2.17 2.17 0 009 13.5a2.17 2.17 0 00-1.594.656 2.17 2.17 0 00-.656 1.594h-1.5c0-.625.148-1.21.445-1.758a3.655 3.655 0 011.22-1.36 3.461 3.461 0 01-.68-.96A3.018 3.018 0 016 10.5c0-.547.133-1.047.398-1.5A3.163 3.163 0 017.5 7.922 2.788 2.788 0 019 7.5zM9 9c-.422 0-.781.148-1.078.445A1.43 1.43 0 007.5 10.5c0 .422.14.781.422 1.078A1.51 1.51 0 009 12c.422 0 .773-.14 1.055-.422.297-.297.445-.656.445-1.078 0-.422-.148-.773-.445-1.055A1.393 1.393 0 009 9zm5.25.75h4.5v1.5h-4.5v-1.5zm0 3h4.5v1.5h-4.5v-1.5z" fill="#253858"/></g><defs><clipPath id="beclip0_2672_3948"><path fill="#fff" d="M0 0h24v24H0z"/></clipPath></defs></svg><svg fill="none" viewBox="0 0 24 24" id="icon-phone" xmlns="http://www.w3.org/2000/svg"><path d="M8.25 3c-.61 0-1.14.227-1.594.68C6.22 4.117 6 4.64 6 5.25v13.5c0 .61.219 1.14.656 1.594.453.437.985.656 1.594.656h7.5c.61 0 1.133-.219 1.57-.656.453-.453.68-.985.68-1.594V5.25c0-.61-.227-1.133-.68-1.57-.437-.453-.96-.68-1.57-.68h-7.5zm0 1.5h7.5c.203 0 .375.078.516.234.156.141.234.313.234.516v13.5a.741.741 0 01-.234.54.701.701 0 01-.516.21h-7.5a.782.782 0 01-.54-.21.782.782 0 01-.21-.54V5.25c0-.203.07-.375.21-.516a.741.741 0 01.54-.234zM12 17.25a.741.741 0 00-.54.234.701.701 0 00-.21.516c0 .203.07.383.21.54.157.14.337.21.54.21s.375-.07.516-.21a.741.741 0 00.234-.54.667.667 0 00-.234-.516.667.667 0 00-.516-.234z" fill="currentColor"/></svg><svg fill="none" viewBox="0 0 65 65" id="icon-plus" xmlns="http://www.w3.org/2000/svg"><rect width="65" height="65" rx="32.5" fill="#D9E0F2"/><path fill-rule="evenodd" clip-rule="evenodd" d="M32.856 20.422a.5.5 0 10-1 0V32H20.28a.5.5 0 000 1h11.577v11.578a.5.5 0 101 0V33h11.579a.5.5 0 100-1H32.856V20.422z" fill="#fff"/></svg><svg fill="none" viewBox="0 0 20 21" id="icon-plus-com" xmlns="http://www.w3.org/2000/svg"><path fill-rule="evenodd" clip-rule="evenodd" d="M5.024 11a.5.5 0 010-1h4.653V5.347a.5.5 0 111 0V10h4.653a.5.5 0 010 1h-4.653v4.653a.5.5 0 11-1 0V11H5.024z" fill="#fff"/></svg><svg fill="none" viewBox="0 0 15 18" id="icon-popup-basket" xmlns="http://www.w3.org/2000/svg"><path d="M0 3.743h.938m14.062 0h-.938m-13.124 0L2.69 16.14a1 1 0 00.99.86h7.638a1 1 0 00.99-.86l1.754-12.397m-13.126 0h4.22m8.905 0H9.845M5.156 6.486V13.8M7.5 6.486V13.8m2.344-7.314V13.8m0-10.057V2a1 1 0 00-1-1H6.156a1 1 0 00-1 1v1.743m4.688 0H5.156" stroke="#4064BF"/></svg><svg fill="none" viewBox="0 0 10 5" id="icon-select" xmlns="http://www.w3.org/2000/svg"><path d="M0 0l5 5 5-5H0z" fill="currentColor"/></svg><svg fill="none" viewBox="0 0 24 24" id="icon-send" xmlns="http://www.w3.org/2000/svg"><path d="M2.01 21L23 12 2.01 3 2 10l15 2-15 2 .01 7z" fill="currentColor"/></svg><svg fill="none" viewBox="0 0 24 24" id="icon-setting" xmlns="http://www.w3.org/2000/svg"><g clip-path="url(#blclip0_2652_13648)"><path d="M9.89 2.25h4.22l.562 2.836c.672.266 1.32.648 1.945 1.148l2.18-.75.586-.187 2.11 3.656-2.134 1.875.024.211c.078.422.117.742.117.961 0 .219-.04.54-.117.96l-.024.212 2.133 1.875-2.11 3.656-.585-.187-2.18-.75c-.625.5-1.273.882-1.945 1.148l-.563 2.836H9.891l-.563-2.836a7.578 7.578 0 01-1.945-1.148l-2.18.75-.586.187-2.11-3.656 2.134-1.875-.024-.211C4.54 12.539 4.5 12.219 4.5 12c0-.219.04-.54.117-.96l.024-.212-2.133-1.875 2.11-3.656.585.187 2.18.75a7.575 7.575 0 011.945-1.148l.445-2.227.118-.609zm1.22 1.5l-.376 1.945-.093.446-.422.14a5.828 5.828 0 00-2.274 1.313l-.328.304-2.32-.796-.89 1.523 1.5 1.336.35.281-.116.445C6.047 11.11 6 11.547 6 12c0 .453.047.89.14 1.313l.118.445-.352.281-1.5 1.336.89 1.523 2.321-.796.328.304a5.829 5.829 0 002.274 1.313l.422.14.468 2.391h1.782l.468-2.39.422-.141a5.83 5.83 0 002.274-1.313l.328-.304 2.32.796.89-1.523-1.827-1.617.093-.445c.094-.422.141-.86.141-1.313 0-.453-.047-.89-.14-1.313l-.118-.445.352-.281 1.5-1.336-.89-1.523-2.321.796-.328-.304A5.829 5.829 0 0013.78 6.28l-.422-.14-.468-2.391h-1.782zm.89 4.5c.672 0 1.297.172 1.875.516a3.552 3.552 0 011.36 1.359c.343.578.515 1.203.515 1.875 0 .672-.172 1.297-.516 1.875a3.723 3.723 0 01-1.359 1.383A3.736 3.736 0 0112 15.75a3.736 3.736 0 01-1.875-.492 3.908 3.908 0 01-1.383-1.383A3.735 3.735 0 018.25 12c0-.672.164-1.297.492-1.875a3.723 3.723 0 011.383-1.36A3.604 3.604 0 0112 8.25zm0 1.5a2.17 2.17 0 00-1.594.656A2.17 2.17 0 009.75 12c0 .625.219 1.156.656 1.594A2.17 2.17 0 0012 14.25a2.17 2.17 0 001.594-.656A2.17 2.17 0 0014.25 12a2.17 2.17 0 00-.656-1.594A2.17 2.17 0 0012 9.75z" fill="#253858"/></g><defs><clipPath id="blclip0_2652_13648"><path fill="#fff" d="M0 0h24v24H0z"/></clipPath></defs></svg><svg fill="none" viewBox="0 0 24 24" id="icon-settings" xmlns="http://www.w3.org/2000/svg"><path d="M11.25 3.75c-.484 0-.922.14-1.313.422a2.28 2.28 0 00-.796 1.078H3v1.5h6.14c.157.438.422.797.797 1.078.391.281.829.422 1.313.422s.914-.14 1.29-.422c.39-.281.663-.64.82-1.078H21v-1.5h-7.64a2.229 2.229 0 00-.82-1.078 2.091 2.091 0 00-1.29-.422zm0 1.5a.73.73 0 01.54.21c.14.142.21.321.21.54 0 .203-.07.383-.21.54a.73.73 0 01-.54.21.782.782 0 01-.54-.21.782.782 0 01-.21-.54.73.73 0 01.21-.54.782.782 0 01.54-.21zm5.25 4.5c-.484 0-.922.14-1.313.422a2.28 2.28 0 00-.796 1.078H3v1.5h11.39c.157.438.422.797.797 1.078.391.281.829.422 1.313.422s.914-.14 1.29-.422c.39-.281.663-.64.82-1.078H21v-1.5h-2.39a2.229 2.229 0 00-.82-1.078 2.091 2.091 0 00-1.29-.422zm0 1.5a.73.73 0 01.54.21c.14.142.21.321.21.54 0 .203-.07.383-.21.54a.73.73 0 01-.54.21.782.782 0 01-.54-.21.782.782 0 01-.21-.54.73.73 0 01.21-.54.782.782 0 01.54-.21zm-8.25 4.5c-.484 0-.922.14-1.313.422a2.28 2.28 0 00-.796 1.078H3v1.5h3.14c.157.438.423.797.798 1.078.39.281.828.422 1.312.422.484 0 .914-.14 1.29-.422.39-.281.663-.64.82-1.078H21v-1.5H10.36a2.229 2.229 0 00-.82-1.078 2.091 2.091 0 00-1.29-.422zm0 1.5a.73.73 0 01.54.21c.14.142.21.321.21.54 0 .203-.07.383-.21.54a.73.73 0 01-.54.21.782.782 0 01-.54-.21.782.782 0 01-.21-.54.73.73 0 01.21-.54.782.782 0 01.54-.21z" fill="currentColor"/></svg><svg fill="none" viewBox="0 0 22 22" id="icon-task" xmlns="http://www.w3.org/2000/svg"><path d="M7 6h11M7 10.783h11M7 16h11M2 15.116l.92.884L5 14" stroke="#30343D"/></svg><svg fill="none" viewBox="0 0 22 22" id="icon-trash" xmlns="http://www.w3.org/2000/svg"><path d="M3 5.743h.938m14.062 0h-.938m-13.125 0L5.691 18.14a1 1 0 00.99.86h7.638a1 1 0 00.99-.86l1.754-12.397m-13.125 0h4.218m8.906 0h-4.218M8.156 8.486V15.8M10.5 8.486V15.8m2.344-7.314V15.8m0-10.057V4a1 1 0 00-1-1H9.156a1 1 0 00-1 1v1.743m4.688 0H8.156" stroke="#4064BF"/></svg><svg fill="none" viewBox="0 0 24 24" id="icon-view-card" xmlns="http://www.w3.org/2000/svg"><path d="M9.6 9.65a.05.05 0 00.05-.05V4.8a.05.05 0 00-.05-.05H4.8a.05.05 0 00-.05.05v4.8c0 .027.023.05.05.05h4.8zm0 1.5H4.8A1.55 1.55 0 013.25 9.6V4.8c0-.856.694-1.55 1.55-1.55h4.8c.856 0 1.55.694 1.55 1.55v4.8a1.55 1.55 0 01-1.55 1.55zm9.6-1.5a.05.05 0 00.05-.05V4.8a.05.05 0 00-.05-.05h-4.8a.05.05 0 00-.05.05v4.8c0 .027.023.05.05.05h4.8zm0 1.5h-4.8a1.55 1.55 0 01-1.55-1.55V4.8c0-.856.694-1.55 1.55-1.55h4.8c.856 0 1.55.694 1.55 1.55v4.8a1.55 1.55 0 01-1.55 1.55zm-9.6 8.1a.05.05 0 00.05-.05v-4.8a.05.05 0 00-.05-.05H4.8a.05.05 0 00-.05.05v4.8c0 .027.023.05.05.05h4.8zm0 1.5H4.8a1.55 1.55 0 01-1.55-1.55v-4.8c0-.856.694-1.55 1.55-1.55h4.8c.856 0 1.55.694 1.55 1.55v4.8a1.55 1.55 0 01-1.55 1.55zm9.6-1.5a.05.05 0 00.035-.015.05.05 0 00.015-.035v-4.8a.05.05 0 00-.015-.035.05.05 0 00-.035-.015h-4.8a.05.05 0 00-.035.015.05.05 0 00-.015.035v4.8c0 .027.023.05.05.05h4.8zm0 1.5h-4.8a1.55 1.55 0 01-1.55-1.55v-4.8c0-.856.694-1.55 1.55-1.55h4.8c.856 0 1.55.694 1.55 1.55v4.8a1.55 1.55 0 01-1.55 1.55z" fill="currentColor"/></svg><svg fill="none" viewBox="0 0 24 24" id="icon-view-hor" xmlns="http://www.w3.org/2000/svg"><path d="M3.25 4.125c0-.483.392-.875.875-.875h15.75a.875.875 0 010 1.75H4.125a.875.875 0 01-.875-.875zM3.25 11.875c0-.483.392-.875.875-.875h15.75a.875.875 0 010 1.75H4.125a.875.875 0 01-.875-.875zM3.25 19.875c0-.483.392-.875.875-.875h15.75a.875.875 0 010 1.75H4.125a.875.875 0 01-.875-.875z" fill="currentColor"/></svg><svg fill="none" viewBox="0 0 22 22" id="icon-village" xmlns="http://www.w3.org/2000/svg"><path d="M15.115 9.6L10.5 4 5.885 9.6h1.153l-2.884 3.36h2.308L3 16.32h6.346V18h2.308v-1.68H18l-4.039-3.36h2.308L13.385 9.6h1.73z" fill="#fff" stroke="#30343D"/></svg><svg fill="none" viewBox="0 0 24 24" id="icon-watch" xmlns="http://www.w3.org/2000/svg"><path d="M12 3c-1.625 0-3.14.414-4.547 1.242a8.56 8.56 0 00-3.21 3.211A8.807 8.807 0 003 12c0 1.625.414 3.14 1.242 4.547a8.735 8.735 0 003.211 3.234A8.935 8.935 0 0012 21c1.625 0 3.14-.406 4.547-1.219a8.916 8.916 0 003.234-3.234A8.936 8.936 0 0021 12c0-1.625-.406-3.14-1.219-4.547a8.735 8.735 0 00-3.234-3.21A8.807 8.807 0 0012 3zm0 1.5c1.36 0 2.625.344 3.797 1.031a7.304 7.304 0 012.672 2.672A7.375 7.375 0 0119.5 12c0 1.36-.344 2.625-1.031 3.797a7.305 7.305 0 01-2.672 2.672A7.375 7.375 0 0112 19.5a7.375 7.375 0 01-3.797-1.031 7.304 7.304 0 01-2.672-2.672A7.375 7.375 0 014.5 12c0-1.36.344-2.625 1.031-3.797a7.304 7.304 0 012.672-2.672A7.374 7.374 0 0112 4.5zM11.25 6v6.75h5.25v-1.5h-3.75V6h-1.5z" fill="currentColor"/></svg><svg fill="none" viewBox="0 0 21 20" id="icon-yandex" xmlns="http://www.w3.org/2000/svg"><g clip-path="url(#btclip0)"><path d="M10.184 20c5.625 0 10.184-4.477 10.184-10S15.808 0 10.184 0 0 4.477 0 10s4.56 10 10.184 10z" fill="#F33"/><path d="M10.469 3.762c-.513 0-.983.084-1.453.252-.47.168-.875.42-1.217.755-.342.335-.62.755-.833 1.258a4.88 4.88 0 00-.3 1.741c0 .944.172 1.699.535 2.244.32.504.726.881 1.217 1.175l-2.37 5.075h2.007l2.093-4.635h1.175v4.635h1.752v-12.5h-2.606zm-.064 1.49h.918v4.865h-.918c-.257 0-.513-.042-.748-.126a1.154 1.154 0 01-.577-.377 2.1 2.1 0 01-.405-.713c-.107-.294-.15-.692-.15-1.154 0-.482.064-.88.17-1.216.108-.315.257-.567.428-.755.171-.19.363-.315.598-.399a1.88 1.88 0 01.684-.126z" fill="#fff"/></g><defs><clipPath id="btclip0"><path fill="#fff" d="M0 0h20.625v20H0z"/></clipPath></defs></svg><svg fill="none" viewBox="0 0 15 18" id="popup-basket" xmlns="http://www.w3.org/2000/svg"><path d="M0 3.743h.938m14.062 0h-.938m-13.124 0L2.69 16.14a1 1 0 00.99.86h7.638a1 1 0 00.99-.86l1.754-12.397m-13.126 0h4.22m8.905 0H9.845M5.156 6.486V13.8M7.5 6.486V13.8m2.344-7.314V13.8m0-10.057V2a1 1 0 00-1-1H6.156a1 1 0 00-1 1v1.743m4.688 0H5.156" stroke="#4064BF"/></svg></svg>