<svg width="17" height="22" viewBox="0 0 17 22" fill="none" xmlns="http://www.w3.org/2000/svg">
<path fill-rule="evenodd" clip-rule="evenodd" d="M7 4C6.44772 4 6 4.44772 6 5V6.07883C3.24289 6.54517 1.18403 9.02127 1.26335 11.9147C1.3298 14.3386 1.34811 16.8439 1.19821 18H0.5C0.223858 18 0 18.2239 0 18.5C0 18.7761 0.223857 19 0.5 19H5.26757C5.09739 19.2942 5 19.6357 5 20C5 21.1046 5.89543 22 7 22C8.10457 22 9 21.1046 9 20C9 19.6357 8.90261 19.2942 8.73243 19H13.5C13.7761 19 14 18.7761 14 18.5C14 18.2239 13.7761 18 13.5 18H12.71C12.5264 16.8712 12.5529 14.4093 12.6401 12.0074C12.7437 9.15181 10.7773 6.67618 8.09238 6.11766H8.11766V5C8.11766 4.44772 7.66995 4 7.11766 4H7ZM7 19C6.44772 19 6 19.4477 6 20C6 20.5523 6.44772 21 7 21C7.55228 21 8 20.5523 8 20C8 19.4477 7.55228 19 7 19ZM11.6407 11.9712C11.5828 13.5666 11.5507 15.2099 11.5906 16.4831C11.6061 16.9797 11.6332 17.4412 11.6779 17.8309C11.5638 17.8385 11.4417 17.8461 11.3121 17.8536C10.2019 17.9177 8.63696 17.9685 7.0596 17.9895C5.47993 18.0106 3.90914 18.0015 2.78241 17.9483C2.57166 17.9383 2.38205 17.927 2.21464 17.9147C2.25918 17.4824 2.28535 16.9413 2.2994 16.3441C2.32935 15.0713 2.30595 13.4547 2.26298 11.8873C2.18979 9.2178 4.3071 7 6.94307 7C9.6065 7 11.7389 9.26527 11.6407 11.9712Z" fill="#30343D"/>
<circle cx="14" cy="3" r="3" fill="#FF6370"/>
</svg>
